<svg xmlns="http://www.w3.org/2000/svg"  viewBox="0 0 30 30" width="30px" height="30px"><path d="M18.037 5.5c0-1.328.474-2.548 1.261-3.5h-5.5C11.364 2 10 3.697 10 5.504c0 1.667 1.157 3.504 3.798 3.504h5.507C18.514 8.055 18.037 6.832 18.037 5.5zM23.537 2A3.5 3.5 0 1023.537 9 3.5 3.5 0 1023.537 2zM9.037 15.5c0-1.325.471-2.542 1.255-3.492H4.798C2.364 12.008 1 13.701 1 15.504c0 .832.289 1.706.909 2.372C2.528 18.542 3.477 19 4.798 19h5.5C9.511 18.048 9.037 16.828 9.037 15.5zM14.537 12A3.5 3.5 0 1014.537 19 3.5 3.5 0 1014.537 12zM18 25.5c0-1.325.471-2.542 1.255-3.492h-5.493c-2.435 0-3.798 1.694-3.798 3.496 0 .832.289 1.706.909 2.372C11.491 28.542 12.441 29 13.762 29h5.499C18.474 28.048 18 26.828 18 25.5zM23.5 22A3.5 3.5 0 1023.5 29 3.5 3.5 0 1023.5 22z"/></svg>